<svg width="48" height="48" viewBox="0 0 48 48" fill="none" xmlns="http://www.w3.org/2000/svg">
<path fill-rule="evenodd" clip-rule="evenodd" d="M46.4744 31.0909H37.101C35.9293 31.0909 34.822 31.5529 33.998 32.3743L24.5344 41.8075C24.2898 42.0513 23.8907 42.0513 23.646 41.8075L6.21247 24.4299C5.96784 24.1861 5.96784 23.7882 6.21247 23.5444L23.646 6.16685C23.8907 5.923 24.2898 5.923 24.5344 6.16685L33.998 15.6C34.822 16.4214 35.9422 16.8834 37.101 16.8834H46.4744C47.8264 16.8834 48.4959 15.2535 47.5431 14.3037L34.6032 1.40535C32.7233 -0.468449 29.6718 -0.468449 27.792 1.40535L24.7533 4.43423C24.3799 4.80642 23.7748 4.80642 23.4014 4.43423L20.3627 1.40535C18.4829 -0.468449 15.4314 -0.468449 13.5516 1.40535L1.40988 13.508C-0.469959 15.3818 -0.469959 18.4235 1.40988 20.2973L4.44852 23.3262C4.82191 23.6984 4.82191 24.3016 4.44852 24.6738L1.40988 27.7027C-0.469959 29.5765 -0.469959 32.6182 1.40988 34.492L13.5516 46.5947C15.4314 48.4684 18.4829 48.4684 20.3627 46.5947L23.4014 43.5658C23.7748 43.1936 24.3799 43.1936 24.7533 43.5658L27.792 46.5947C29.6718 48.4684 32.7233 48.4684 34.6032 46.5947L47.556 33.6834C48.5088 32.7209 47.8264 31.0909 46.4744 31.0909Z" fill="#FF7826"/>
</svg>
