<svg viewBox="0 0 24 24" fill="none" xmlns="http://www.w3.org/2000/svg">
<path d="M19.5696 5.03666L18.9111 5.69511C20.4834 7.41477 21.3553 9.66051 21.3553 11.9906C21.3553 14.3207 20.4834 16.5664 18.9111 18.2861L19.5696 18.9445C21.3174 17.0478 22.2877 14.563 22.2877 11.9838C22.2877 9.40456 21.3174 6.91973 19.5696 5.02303V5.03666Z" fill="#5A5564"/>
<path d="M5.7111 5.09404C7.43066 3.52157 9.67644 2.64954 12.0066 2.64954C14.3367 2.64954 16.5825 3.52157 18.3021 5.09404L18.9605 4.4356C17.0637 2.68687 14.5783 1.71599 11.9984 1.71599C9.41844 1.71599 6.93301 2.68687 5.03619 4.4356L5.7111 5.09404Z" fill="#5A5564"/>
<path d="M5.09404 18.2955C3.52332 16.5764 2.65238 14.3319 2.65238 12.0033C2.65238 9.67466 3.52332 7.43023 5.09404 5.71111L4.43559 5.05266C2.68686 6.94947 1.71599 9.4349 1.71599 12.0148C1.71599 14.5947 2.68686 17.0802 4.43559 18.977L5.09404 18.2955Z" fill="#5A5564"/>
<path d="M18.2955 18.9017C16.5759 20.4742 14.3301 21.3462 12 21.3462C9.66985 21.3462 7.42407 20.4742 5.70452 18.9017L5.04607 19.5602C6.94288 21.3089 9.42831 22.2798 12.0082 22.2798C14.5881 22.2798 17.0736 21.3089 18.9704 19.5602L18.2955 18.9017Z" fill="#5A5564"/>
<path d="M16.1602 9.80101C16.0285 8.42627 14.8433 7.96676 13.3421 7.82567V5.93074H12.1813V7.78898H11.2553V5.93074H10.1044V7.83742H7.75277V9.07719C7.75277 9.07719 8.60923 9.06167 8.59606 9.07719C8.7504 9.06034 8.90526 9.104 9.02807 9.199C9.15087 9.294 9.23205 9.43292 9.25451 9.58655V14.8071C9.24726 14.9164 9.19692 15.0183 9.11454 15.0904C9.03216 15.1626 8.9245 15.1991 8.81523 15.1918C8.83075 15.205 7.97194 15.1918 7.97194 15.1918L7.7523 16.5779H10.0827V18.5151H11.2407V16.6061H12.1677V18.5062H13.3298V16.591C15.2892 16.472 16.6555 15.989 16.8267 14.1548C16.9649 12.6789 16.2708 12.0195 15.1617 11.7561C15.8376 11.4222 16.2548 10.807 16.1602 9.80101ZM14.5329 13.9262C14.5329 15.3673 12.0642 15.2026 11.2778 15.2026V12.646C12.0661 12.6479 14.5329 12.4216 14.5329 13.9262ZM13.9968 10.324C13.9968 11.6409 11.9363 11.4815 11.2816 11.4815V9.15762C11.9363 9.15762 13.9968 8.95114 13.9968 10.324Z" fill="#F09242"/>
<path d="M11.9979 24C5.37059 23.9986 0 18.6247 0 11.9979C0 5.37106 5.37483 0 12.0021 0C18.6294 0 23.9986 5.372 24 11.9979C24.0014 18.6238 18.6294 23.9986 12.0021 24H11.9979ZM11.9979 0.935938C5.89077 0.940642 0.945345 5.895 0.949107 12.0021C0.95287 18.1092 5.90817 23.0547 12.0153 23.0509C18.1224 23.0471 23.0617 18.0994 23.0641 11.9984C23.0664 5.89735 18.1177 0.940642 12.0111 0.935938H11.9979Z" fill="#282138"/>
</svg>
